<svg width="340.194" height="56.546" viewBox="0 0 90.01 14.961" xmlns="http://www.w3.org/2000/svg">
    <g style="fill:#482683;fill-opacity:1;fill-rule:evenodd">
        <path d="M203.454 81.412c-.346-1.354-1.435-2.2-2.932-2.374a3.52 3.52 0 0 0-.38-.021c-1.302 0-2.228.764-2.758 1.807-.553-1.1-1.498-1.796-2.874-1.796l-.28.01c-1.37.1-2.546.913-2.916 2.517-.667 2.884 2.5 5.833 6.07 8.702 3.808-2.85 6.78-6.07 6.07-8.844zM271.113 91a3.91 3.91 0 0 0-.86.43c-.8.527-1.192 1.113-1.53 2.293l-.158.507a1.147 1.147 0 0 0-.052.346c0 .43.307.828.85 1.106a2.08 2.08 0 0 0 1.013.25c.382 0 .572-.065.747-.253a.6.6 0 0 0 .179-.387c.03-.188.03-.274-.003-.383-.093-.315-.3-.346-.968-.147-.6.18-.782.205-.954.13-.172-.075-.245-.212-.27-.493-.038-.46.13-1.106.43-1.65a3.61 3.61 0 0 1 1.013-1.058c.6-.35 1.233-.452 2.004-.33 1.643.264 3.058 1.578 3.54 3.286a4.36 4.36 0 0 1 .203 1.027c.083.856-.045 1.633-.375 2.293-.165.332-.38.64-1.013 1.47-1.38 1.794-2.077 2.52-3.306 3.437-1.002.746-1.688 1.102-2.128 1.102-.4 0-.827-.116-2.52-.67l-5.33-1.975-3.72-1.756-2.152-1.037c-2-.883-3.733-1.328-5.7-1.48-.696-.05-2.442-.024-3.26.055-.592.055-.73.082-1.636.288-.9.202-1.663.267-1.877.157-.124-.062-.134-.144-.024-.188 1.774-.722 2.27-.893 3.24-1.116 1.74-.397 3.05-.558 4.728-.585 2.717-.045 4.963.274 7.93 1.126 1.157.332 2.1.705 3.985 1.56l3.55 1.465c.413.154 1.347.428 1.746.5.458.092 1.037.13 1.464.086l.86-.068c.77-.058 1.236-.2 1.698-.558.4-.294.623-.654.603-.924-.028-.38-.513-.246-1.267.346a3.34 3.34 0 0 1-1.188.633l-.448.144-.7-.003c-.623 0-.727-.01-1.085-.092-.95-.223-1.9-.558-3.688-1.318l-1.667-.702-.995-.435c-1.405-.654-2.438-1.013-4.102-1.42a23.54 23.54 0 0 0-2.418-.462 20.93 20.93 0 0 0-3.354-.264c-2.624-.04-4.215.154-6.695.8a9.03 9.03 0 0 0-2.187.804c-.95.448-1.1.496-1.73.527-.468.024-.52.034-.723.134-.393.192-.572.414-.868 1.075-.14.315-.358.544-.592.623-.18.058-.472.288-.95.73-.43.397-.42.38-.327.56.103.195.217.216.417.072.424-.3 1.405-.828 1.543-.828.1 0 .203.068.255.188.052.12.262.288.506.394.244.106.734.178 1.247.185.45.003.492-.003.65-.082.2-.106.3-.2.317-.414.017-.137.01-.17-.052-.233-.096-.096-.158-.082-.678.12-.7.27-.964.3-1.174.14a1.94 1.94 0 0 0-.289-.164c-.5-.23-.358-.53.313-.72.138-.04.54-.205.892-.373 1.23-.575 1.66-.72 1.956-.647.386.092.93.397 1.732.972.162.116.496.325.74.47.823.472 3.496 1.794 4.942 2.44l1.932.876c.964.452 2.456.965 4.456 1.534 2.672.757 4.6 1.037 6.733.982.816-.02 1.753-.106 2.4-.212.575-.096.968-.2 1.588-.452.875-.34.964-.363 1.36-.34.18.01.537.068.792.123a7.91 7.91 0 0 0 1.477.209c.685.048 2.15.048 2.655.003 1.66-.154 3.234-.6 4.32-1.2.84-.466 1.35-.87 2.397-1.893.365-.356.565-.938.544-1.568-.007-.312-.024-.394-.096-.534-.1-.216-.282-.312-.554-.312-.45 0-.527.192-.355.917.124.52.134.972.02 1.18-.107.202-.713.798-1.1 1.1a14.02 14.02 0 0 1-1.877 1.113c-.727.356-1.35.54-2.307.688-.475.072-.63.08-1.877.075-1.133 0-1.495-.014-2.17-.075l-1.378-.185c1.84-1.068 2.717-1.718 3.62-2.667.823-.863 1.32-1.5 1.822-2.293.713-1.14 1-2.098.954-3.197-.07-1.67-.868-3.173-2.263-4.258-.217-.17-.782-.448-1.085-.534-.734-.2-1.898-.3-2.273-.157zm-21.008 6.466c1.102.068 2.218.315 3.96.87 1.288.4 2.066.76 3.788 1.705 1.5.818 5.903 2.756 6.674 2.927.138.03.713.212 1.28.4l2.576.787c.22.058.403.12.403.134 0 .014-.06.038-.127.048-.067.01-.35.1-.62.17-1.202.37-2.214.5-3.905.496a20.41 20.41 0 0 1-2.648-.14c-.92-.092-1.446-.18-2.032-.34l-4.684-1.448a5.87 5.87 0 0 0-.706-.28c-.85-.257-3.25-1.393-6.406-3.026l-1.384-.794-.296-.202c-.086 0-1.402-.743-1.402-.8 0-.014.103-.04.234-.065l.816-.188a9.086 9.086 0 0 1 1.877-.3 29.02 29.02 0 0 1 2.6.027zm-7.153.407c.12.03.203.065.2.08a4.03 4.03 0 0 1-.424.154c-.214.068-.5.178-.627.243s-.344.16-.482.216l-.734.325c-.7.322-.75.305-.2-.055l1.112-.678.534-.315c.117-.068.262-.062.63.03zm-1.63.01a.716.716 0 0 1-.183.116.98.98 0 0 0-.231.157c-.083.1-.248.18-.3.164-.04-.014.34-.312.53-.414.124-.065.217-.08.183-.024zM122.887 91a3.91 3.91 0 0 1 .86.43c.8.527 1.192 1.113 1.53 2.293l.158.507c.028.068.052.226.052.346 0 .43-.307.828-.85 1.106a2.08 2.08 0 0 1-1.013.25c-.382 0-.572-.065-.747-.253a.6.6 0 0 1-.179-.387c-.03-.188-.03-.274.003-.383.093-.315.3-.346.968-.147.6.18.782.205.954.13.172-.075.245-.212.27-.493.038-.46-.13-1.106-.43-1.65a3.61 3.61 0 0 0-1.013-1.058c-.6-.35-1.233-.452-2.004-.33-1.643.264-3.058 1.578-3.54 3.286a4.36 4.36 0 0 0-.203 1.027c-.083.856.045 1.633.375 2.293.165.332.38.64 1.013 1.47 1.38 1.794 2.077 2.52 3.306 3.437 1.002.746 1.688 1.102 2.128 1.102.4 0 .827-.116 2.52-.67l5.33-1.975 3.72-1.756 2.152-1.037c2-.883 3.733-1.328 5.7-1.48.696-.05 2.442-.024 3.26.055.592.055.73.082 1.636.288.9.202 1.663.267 1.877.157.124-.062.134-.144.024-.188-1.774-.722-2.27-.893-3.24-1.116-1.74-.397-3.05-.558-4.728-.585-2.717-.045-4.963.274-7.93 1.126-1.157.332-2.1.705-3.985 1.56l-3.55 1.465c-.413.154-1.347.428-1.746.5a5.375 5.375 0 0 1-1.464.086l-.86-.068c-.77-.058-1.236-.2-1.698-.558-.4-.294-.623-.654-.603-.924.028-.38.513-.246 1.267.346a3.34 3.34 0 0 0 1.188.633l.448.144.7-.003c.623 0 .727-.01 1.085-.092.95-.223 1.9-.558 3.688-1.318l1.667-.702.995-.435c1.405-.654 2.438-1.013 4.102-1.42a23.54 23.54 0 0 1 2.418-.462 20.93 20.93 0 0 1 3.354-.264c2.624-.04 4.215.154 6.695.8a9.03 9.03 0 0 1 2.187.804c.95.448 1.1.496 1.73.527.468.024.52.034.723.134.393.192.572.414.868 1.075.14.315.358.544.592.623.18.058.472.288.95.73.43.397.42.38.327.56-.103.195-.217.216-.417.072-.424-.3-1.405-.828-1.543-.828-.1 0-.203.068-.255.188-.052.12-.262.288-.506.394-.244.106-.734.178-1.247.185-.45.003-.492-.003-.65-.082-.2-.106-.3-.2-.317-.414-.017-.137-.01-.17.052-.233.096-.096.158-.082.678.12.7.27.964.3 1.174.14a1.94 1.94 0 0 1 .289-.164c.5-.23.358-.53-.313-.72a8.455 8.455 0 0 1-.892-.373c-1.23-.575-1.66-.72-1.956-.647-.386.092-.93.397-1.732.972-.162.116-.496.325-.74.47-.823.472-3.496 1.794-4.942 2.44l-1.932.876c-.964.452-2.456.965-4.456 1.534-2.672.757-4.6 1.037-6.733.982a19.217 19.217 0 0 1-2.4-.212 6.614 6.614 0 0 1-1.588-.452c-.875-.34-.964-.363-1.36-.34-.18.01-.537.068-.792.123a7.91 7.91 0 0 1-1.477.209c-.685.048-2.15.048-2.655.003-1.66-.154-3.234-.6-4.32-1.2-.84-.466-1.35-.87-2.397-1.893-.365-.356-.565-.938-.544-1.568.007-.312.024-.394.096-.534.1-.216.282-.312.554-.312.45 0 .527.192.355.917-.124.52-.134.972-.02 1.18.107.202.713.798 1.1 1.1a14.02 14.02 0 0 0 1.877 1.113c.727.356 1.35.54 2.307.688.475.072.63.08 1.877.075l2.17-.075 1.378-.185c-1.84-1.068-2.717-1.718-3.62-2.667-.823-.863-1.32-1.5-1.822-2.293-.713-1.14-1-2.098-.954-3.197.07-1.67.868-3.173 2.263-4.258.217-.17.782-.448 1.085-.534.734-.2 1.898-.3 2.273-.157zm21.008 6.466c-1.102.068-2.218.315-3.96.87-1.288.4-2.066.76-3.788 1.705-1.5.818-5.903 2.756-6.674 2.927-.138.03-.713.212-1.28.4l-2.576.787c-.22.058-.403.12-.403.134 0 .014.06.038.127.048.067.01.35.1.62.17 1.202.37 2.214.5 3.905.496a20.41 20.41 0 0 0 2.648-.14c.92-.092 1.446-.18 2.032-.34l4.684-1.448a5.87 5.87 0 0 1 .706-.28c.85-.257 3.25-1.393 6.406-3.026l1.384-.794.296-.202c.086 0 1.402-.743 1.402-.8 0-.014-.103-.04-.234-.065l-.816-.188a9.086 9.086 0 0 0-1.877-.3 29.02 29.02 0 0 0-2.6.027zm7.153.407c-.12.03-.203.065-.2.08a4.03 4.03 0 0 0 .424.154c.214.068.5.178.627.243s.344.16.482.216l.734.325c.7.322.75.305.2-.055l-1.112-.678-.534-.315c-.117-.068-.262-.062-.63.03zm1.63.01c.014.02.093.072.183.116a.98.98 0 0 1 .231.157c.083.1.248.18.3.164.04-.014-.34-.312-.53-.414-.124-.065-.217-.08-.183-.024z" style="fill:#482683;fill-opacity:1" transform="matrix(.52917 0 0 .52917 -59.241 -41.813)"/>
    </g>
    <path style="fill:#482683;fill-opacity:1;stroke-width:1" d="M110.973 155.94a5.116 5.116 0 0 1-.61-.11c-.463-.125-.825-.435-.942-.806a.51.51 0 0 1-.015-.342c.101-.454.466-.723.952-.704l.196.008-.016-.934c-.018-1.007-.051-1.322-.21-1.977a4.765 4.765 0 0 1-.15-1.482c.03-.72.143-1.094.532-1.744.329-.55.325-.496.055-.81-.21-.246-.235-.265-.31-.24-.644.214-.873.28-.983.28-.089 0-.127-.013-.118-.039.023-.069.594-.334.841-.39.133-.031.246-.06.252-.064.02-.015-.07-.234-.096-.234-.014 0-.025.014-.025.031 0 .018-.035.032-.077.032-.042 0-.195.027-.34.061-.495.116-.704.088-.46-.061.162-.1.43-.166.68-.17l.23-.004-.008-.123-.01-.122-.363-.09c-.2-.049-.446-.09-.547-.09-.171-.002-.183-.007-.173-.072.015-.11.139-.156.352-.135.224.024.586.13.66.196.06.054.067.039.104-.26.01-.086.096-.328.189-.536.093-.209.185-.472.205-.585.054-.308.156-.694.222-.845.045-.102.076-.134.132-.134.118 0 .39.176.638.41l.23.22.124-.035c.144-.04.698-.01.76.04.031.026.11-.03.328-.23.158-.144.36-.31.45-.366l.162-.102.072.068c.085.08.307.501.466.887.156.377.272.888.293 1.293.017.317.022.334.07.275.045-.057.094-.063.524-.069.467-.006.474-.005.484.064.012.086.002.089-.594.134-.274.021-.465.05-.479.071a.613.613 0 0 0-.043.148c-.017.087-.008.12.037.156.054.042.053.044-.014.028-.056-.013-.082.003-.119.073-.069.135-.06.189.034.189.129 0 .897.225.97.284.043.035.059.072.045.109-.017.045-.045.05-.155.033a13.126 13.126 0 0 1-.991-.29c-.02-.007-.11.088-.202.212l-.167.224.04.133c.131.439.429.757 1.048 1.118.321.188.784.533 1.18.882.532.468 1.028 1.238 1.28 1.987.177.529.231.923.212 1.545-.02.634-.035.689-.39 1.49-.016.037.071.08.288.14.07.02.362.044.649.054.601.02 1.208-.045 1.536-.164.45-.163.994-.598 1.162-.93.107-.21.212-.63.218-.868.004-.17.013-.194.071-.203.092-.013.145.064.175.256.038.239-.018.535-.158.829-.321.675-1.153 1.228-2.009 1.334-.26.032-1.565.03-1.995-.004l-.35-.028-.123.138c-.187.207-.297.31-.48.444-.166.124-.198.169-.125.18.21.032 1.295.036 1.902.006 1.294-.064 1.911-.186 2.504-.498.393-.206.511-.294.75-.554.239-.26.517-.78.607-1.13.21-.827-.225-1.82-.96-2.187-.427-.214-.961-.23-1.355-.04-.344.167-.668.626-.744 1.054-.035.202-.013.478.038.478.017 0 .03.034.03.075 0 .078.037.16.14.313.065.099.27.204.437.224l.11.014-.088-.179c-.155-.316-.15-.714.011-.959.103-.155.367-.278.597-.278.229 0 .376.07.554.263a.536.536 0 0 1 .153.505c-.061.397-.238.65-.551.791-.348.156-.85.206-1.054.104-.397-.197-.688-.693-.688-1.172 0-.244.07-.514.19-.742.337-.63.855-.942 1.548-.93.52.009.889.163 1.303.546.47.436.68.941.688 1.665.005.434-.052.682-.26 1.115-.137.286-.196.368-.458.638a4.6 4.6 0 0 1-.54.476c-.465.32-1.175.577-1.823.659-.5.063-1.82.102-2.544.076-.96-.034-1.165-.033-1.753.011-.684.052-3.573.046-4.044-.009zm4.14-.33c.374-.058.715-.179.966-.343.254-.166.866-.704.975-.856.11-.155.246-.519.351-.94.09-.36.098-.427.084-.763a3.85 3.85 0 0 0-.036-.448 1.985 1.985 0 0 1-.036-.187c-.077-.545-.415-1.31-.81-1.837-.33-.439-1.008-1.027-1.539-1.337-.548-.32-1.086-.834-1.253-1.2a1.372 1.372 0 0 0-.09-.178 3.27 3.27 0 0 0-.198.094c-.569.285-1.4.302-2.038.043a.989.989 0 0 0-.199-.068l-.164.247c-.499.75-.712 1.423-.662 2.082.011.15.063.456.115.682.3 1.3.315 1.435.315 2.646 0 .699.008.845.044.845.024 0 .177.056.34.123.162.068.338.128.39.133a.365.365 0 0 1 .132.037c.02.014.043.015.052 0 .049-.08.093-.61.095-1.146.002-.693-.065-1.168-.235-1.68-.177-.53-.23-.942-.124-.942.043 0 .374.713.456.98.19.623.222.85.222 1.579 0 .398-.014.75-.035.853-.02.095-.046.239-.056.319l-.02.145.247.058c.135.032.252.056.259.054.02-.006.142-.434.286-1.003.161-.634.196-.734.277-.79.064-.045.066-.042.077.135.023.395-.055.856-.262 1.547-.022.073-.031.143-.02.154.012.012.36.027.773.034.675.011.745.008.687-.035a14.358 14.358 0 0 0-.284-.199 1.23 1.23 0 0 1-.386-.402c-.27-.408-.306-.529-.307-1.028-.001-.445.054-.717.205-1.013.08-.158.38-.45.599-.582.287-.175.42-.211.845-.23.341-.014.411-.007.605.054.239.077.351.159.351.256 0 .074-.043.076-.3.014-.24-.058-.79-.042-1.018.03-.387.12-.731.464-.893.891-.15.396-.108.965.1 1.338.153.276.23.36.548.618.165.133.315.268.333.301.02.036.066.06.118.06.047.001.106.014.131.03.069.044-.013.18-.133.221-.164.058-.747.073-1.334.037-.94-.059-1.494-.173-2.491-.512-.641-.218-.666-.224-.923-.213-.251.01-.269.016-.376.12-.189.183-.208.374-.063.622.188.322.605.478 1.546.577.355.037 3.487.014 3.76-.028zm5.247-2.405c.199-.098.296-.26.296-.497a.695.695 0 0 0-.047-.26c-.107-.206-.46-.266-.662-.112-.137.104-.176.239-.144.498.013.11.017.218.009.24-.008.023.009.068.039.101s.044.077.03.098c-.04.066.309.017.479-.068zm-7.301-5.749c.581-.179.93-.49 1.128-1.006.101-.265.103-.284.103-.762 0-.377-.014-.54-.06-.71-.105-.393-.427-1.154-.488-1.154-.014 0-.17.145-.344.321l-.318.321-.187-.052a2.108 2.108 0 0 0-.526-.053c-.32 0-.353.006-.576.11-.293.135-.622.352-.776.512-.198.205-.373.641-.373.926 0 .157.08.457.179.664.108.226.593.707.816.809.396.18.978.21 1.422.074zm-1.437-.503c-.058-.036-.05-.043.123-.093.185-.053.286-.122.323-.221.026-.068.02-.09-.042-.14-.104-.084-.183-.214-.184-.3 0-.07.004-.072.23-.05.125.012.239.027.252.035.045.026.023.11-.058.216-.096.126-.084.197.054.314a.32.32 0 0 0 .204.08c.085 0 .108.013.108.06 0 .155-.236.167-.426.021-.093-.07-.11-.074-.145-.03-.098.118-.332.176-.44.108zm2.228-.087c-.018-.047-.025-.048-.05-.008-.022.034-.03.036-.03.005 0-.023-.014-.033-.031-.023-.03.019-.37-.057-.403-.09-.009-.01-.007-.053.004-.097.017-.07.038-.08.147-.08a.8.8 0 0 1 .316.095c.167.084.185.103.157.156-.048.089-.086.103-.11.041zm-.373-.441c-.03-.008-.055-.035-.055-.06 0-.076.446-.062.541.017l.075.063-.253-.003a2.256 2.256 0 0 1-.308-.018zm-2.322-.422c-.1-.04-.095-.207.01-.366.17-.253.33-.3.488-.142.118.117.098.192-.1.39-.155.156-.24.181-.398.118zm1.011-.066c-.022-.022-.04-.084-.04-.136.001-.277.37-.52.648-.429.134.045.146.129.04.287-.153.226-.538.392-.648.278zm-.616-1.627c.074-.029.134-.063.134-.077 0-.043-.407-.383-.437-.365-.016.01-.053.15-.082.311l-.068.364c-.013.064.003.058.152-.055.092-.07.227-.15.3-.178zM91.161 155.848c-.903-.048-1.311-.111-1.85-.284-.684-.22-1.154-.514-1.631-1.02-.313-.33-.445-.54-.567-.896-.21-.615-.195-1.255.042-1.78.102-.226.452-.657.659-.812.375-.28.8-.403 1.276-.37.543.04.882.182 1.214.511.18.18.254.285.376.534.148.301.152.317.15.592 0 .373-.09.643-.295.89-.366.439-.961.532-1.539.239-.19-.096-.45-.382-.52-.572a.957.957 0 0 0-.08-.18c-.039-.043-.028-.33.018-.455.088-.246.483-.43.837-.39.167.02.21.038.309.137a.801.801 0 0 1 .208.609c-.041.273-.42.52-.613.398-.038-.024-.032-.035.031-.062.112-.046.17-.1.246-.223.217-.355-.14-.7-.523-.504-.233.119-.29.313-.175.598.11.274.604.541.963.52.427-.026.837-.48.837-.926 0-.574-.406-1.115-.988-1.32a2.216 2.216 0 0 0-.957-.06c-.462.097-.938.547-1.21 1.142-.118.257-.14.692-.052 1.038.295 1.167 1.164 1.897 2.588 2.175.596.116.896.126 4.273.136 3.169.009 3.335.007 3.555-.05.467-.12.738-.477.584-.773-.077-.15-.206-.197-.499-.18a1.42 1.42 0 0 0-.504.117c-.459.186-.541.195-1.921.212-1.221.015-1.262.014-1.242-.043.038-.106.08-.137.416-.301.525-.258.79-.573.929-1.106.064-.249.096-.688.055-.777a1.633 1.633 0 0 1-.07-.226c-.082-.347-.36-.678-.713-.853-.21-.104-.26-.116-.56-.129-.363-.016-.653.026-.842.123-.066.034-.128.055-.136.046-.008-.008.01-.069.043-.134.087-.18.386-.323.719-.346.848-.057 1.535.377 1.805 1.141.095.27.115.781.043 1.081-.108.45-.33.856-.595 1.089l-.113.099h.417c.23 0 .51-.01.626-.02l.209-.02-.06-.115c-.104-.198-.188-.65-.208-1.107-.013-.323-.008-.443.022-.478.05-.06.094-.062.094-.003 0 .024.014.049.03.055.017.006.054.207.082.447.028.24.074.492.103.56.235.557.276.634.336.628.103-.01.498-.16.51-.194a.533.533 0 0 0-.038-.171c-.073-.214-.124-.922-.102-1.401.031-.68.106-.95.514-1.866.331-.743.416-1.055.416-1.533 0-.34-.063-.845-.123-.996l-.03-.075-.002.085a.33.33 0 0 1-.076.17c-.072.084-.078.086-.212.047a3.779 3.779 0 0 1-.46-.208l-.323-.168-.21.095c-.242.11-.707.277-.771.277-.108 0-.13-.096-.145-.64-.019-.617-.049-.672-.187-.331-.177.437-.42.68-1.052 1.054-.725.428-.834.502-1.095.737-.688.621-1.1 1.256-1.349 2.076-.183.608-.216.822-.199 1.289.014.38.025.436.14.755.149.41.21.536.448.91.182.286.245.421.198.426a1.232 1.232 0 0 0-.096.015c-.04.007-.07-.003-.07-.023 0-.037-.203-.029-.863.035-1.44.14-2.59-.17-3.255-.874-.24-.255-.356-.44-.417-.669-.077-.289-.044-.588.065-.588.058 0 .09.078.136.323.086.464.493.9 1.142 1.226.629.316 1.69.407 2.54.22.134-.03.244-.063.244-.075 0-.011-.057-.111-.127-.222-.287-.458-.406-.907-.41-1.548-.005-.503.03-.714.207-1.283.263-.848.608-1.45 1.127-1.973.356-.358.694-.6 1.373-.985.563-.32.787-.495.919-.72.194-.33.26-.705.144-.81-.044-.04-.075-.047-.118-.025-.055.03-.535.142-1.014.238a3.22 3.22 0 0 0-.29.068c-.043.016-.055.004-.055-.057 0-.043.02-.094.043-.113.057-.048.419-.137.914-.225.224-.04.412-.075.417-.078a.48.48 0 0 0-.043-.136c-.05-.127-.052-.128-.139-.083-.083.044-.604.126-1.03.164-.184.017-.199.013-.188-.041.006-.033.06-.084.12-.113.124-.06.602-.12.956-.12.13 0 .236-.007.236-.017 0-.01-.015-.078-.033-.151-.032-.125-.04-.133-.13-.12a6.363 6.363 0 0 1-.639-.025c-.484-.035-.547-.046-.563-.098-.011-.032-.01-.073 0-.09.046-.073.978-.013 1.193.076l.1.042.02-.396c.018-.398.098-.775.271-1.29.086-.256.328-.727.411-.803.061-.055.067-.055.178.004.063.034.244.185.402.336l.287.274.26-.037c.201-.028.3-.028.447.002.116.024.196.028.208.01.043-.067.503-.408.675-.502.2-.108.276-.122.323-.06.027.034.225.81.278 1.09.011.06.076.246.143.413.07.176.137.409.157.552l.035.248.232-.072c.54-.166.875-.168.852-.005-.008.064-.039.075-.292.111a8.05 8.05 0 0 0-.496.09.852.852 0 0 1-.26.03c-.03-.012-.044.005-.045.052a.614.614 0 0 1-.019.14c-.019.07-.014.071.247.071.363 0 .59.047.658.134.03.039.055.082.055.097 0 .028-.593 0-.857-.042-.151-.023-.153-.023-.196.081-.05.119-.057.18-.017.156.037-.023.635.125.78.193.131.062.175.187.089.258-.04.033-.079.024-.229-.054a2.837 2.837 0 0 0-.416-.164 1.418 1.418 0 0 1-.278-.104c-.034-.028-.063-.01-.136.08-.11.138-.425.392-.616.498l-.136.075.015.22c.01.152.05.302.125.486.27.657.308 1.51.095 2.132-.045.13-.148.37-.23.534-.293.587-.481 1.128-.538 1.545-.042.311-.013 1.385.046 1.685.034.177.048.202.101.19.174-.038.506-.01.631.055a.693.693 0 0 1 .292.947c-.12.232-.403.459-.713.57-.143.052-.276.068-.65.078-.82.021-5.693.027-6.069.007zm6.564-8.03c.004-.167-.003-.314-.015-.326-.012-.013-.13.028-.262.09a1.43 1.43 0 0 1-.293.115c-.03 0-.08.02-.114.043-.095.07-.018.188.196.302.1.053.238.13.307.172l.125.076.025-.085a2.51 2.51 0 0 0 .03-.388zm-1.31.266c.298-.122.36-.158.36-.212 0-.107-.035-.135-.346-.281-.42-.198-.42-.198-.432.012-.011.181.021.627.045.627.007 0 .176-.066.374-.146zm1.005-.79c.516-.168.8-.317 1.02-.537.38-.38.476-1.025.229-1.534-.17-.346-.572-.653-1.075-.817-.276-.09-.744-.091-.94-.002l-.136.062-.065-.086c-.096-.129-.515-.541-.548-.541-.084 0-.486 1.118-.54 1.501-.056.395.049 1.002.215 1.243.047.07.124.205.17.3l.084.176.322.127c.344.136.587.217.713.238a.43.43 0 0 1 .08.018c.002.002.213-.065.471-.148zm-.501-.472c-.037-.06.006-.089.156-.106a.378.378 0 0 0 .233-.101c.117-.112.131-.18.06-.288-.065-.098-.076-.185-.028-.215.033-.02.376.04.376.067 0 .008-.033.08-.074.162-.04.082-.09.2-.111.263a.256.256 0 0 1-.153.17c-.141.068-.429.097-.46.048zm-1.223-.119c-.039-.1.056-.142.355-.16.282-.015.339.004.244.082-.045.038-.406.13-.512.13-.037 0-.076-.023-.087-.052zm2.27-.82c-.188-.187-.205-.39-.042-.497.073-.048.094-.049.21-.008.253.088.366.422.19.56-.124.097-.221.082-.358-.055zm-1.05-.11c-.137-.132-.172-.186-.172-.265 0-.18.172-.203.46-.063.146.072.199.16.199.336 0 .134-.033.16-.207.16-.088 0-.14-.032-.28-.167zm1.458-1.612a1.913 1.913 0 0 0-.054-.322c-.017 0-.228.161-.374.286l-.1.085.21.125c.115.068.238.156.272.194.058.064.064.065.074.011a2.564 2.564 0 0 0-.028-.38z" transform="translate(-59.531 -141.023)"/>
</svg>
